<svg height="512pt" viewBox="-18 0 512 512.00048" width="512pt" xmlns="http://www.w3.org/2000/svg"><path d="m231.085938 83.203125c-2.589844 0-5.109376-1.34375-6.5-3.75l-39.375-68.203125c-2.070313-3.585938-.84375-8.171875 2.742187-10.242188 3.585937-2.074218 8.175781-.84375 10.246094 2.742188l39.375 68.203125c2.074219 3.585937.84375 8.175781-2.742188 10.246094-1.183593.679687-2.472656 1.003906-3.746093 1.003906zm0 0" fill="#bce8f1"/><path d="m245.4375 83.203125c-1.269531 0-2.5625-.324219-3.742188-1.003906-3.585937-2.070313-4.816406-6.660157-2.746093-10.246094l39.378906-68.203125c2.070313-3.585938 6.652344-4.816406 10.242187-2.742188 3.589844 2.070313 4.816407 6.65625 2.746094 10.242188l-39.375 68.203125c-1.386718 2.40625-3.910156 3.75-6.503906 3.75zm0 0" fill="#bce8f1"/><path d="m442.859375 103.191406h-409.191406c-18.566407 0-33.667969 15.105469-33.667969 33.667969v301.25c0 18.566406 15.101562 33.667969 33.667969 33.667969h409.191406c18.5625 0 33.667969-15.101563 33.667969-33.667969v-301.25c0-18.5625-15.101563-33.667969-33.667969-33.667969zm0 0" fill="#6990d7"/><path d="m33.667969 471.78125h409.191406c18.5625 0 33.667969-15.105469 33.667969-33.667969v-301.253906c0-18.5625-15.105469-33.667969-33.667969-33.667969h-13.832031v242.292969c0 54.5625-44.234375 98.796875-98.796875 98.796875h-329.652344c2.902344 15.625 16.632813 27.5 33.089844 27.5zm0 0" fill="#4172cc"/><path d="m72.308594 376.695312v-218.417968c0-7.3125 5.929687-13.238282 13.242187-13.238282h305.425781c7.3125 0 13.242188 5.925782 13.242188 13.238282v218.417968c0 7.3125-5.929688 13.238282-13.242188 13.238282h-305.425781c-7.3125 0-13.242187-5.925782-13.242187-13.238282zm0 0" fill="#eb5793"/><path d="m390.976562 145.039062h-26.757812v128.820313c0 53.058594-43.015625 96.074219-96.078125 96.074219h-195.832031v6.761718c0 7.3125 5.929687 13.238282 13.242187 13.238282h305.425781c7.3125 0 13.242188-5.925782 13.242188-13.238282v-218.417968c0-7.3125-5.929688-13.238282-13.242188-13.238282zm0 0" fill="#e7387f"/><path d="m252.988281 53.203125h-29.449219c-22.6875 0-41.144531 18.457031-41.144531 41.140625 0 4.878906 3.96875 8.847656 8.847657 8.847656h94.039062c4.878906 0 8.851562-3.96875 8.851562-8.847656 0-22.683594-18.457031-41.140625-41.144531-41.140625zm0 0" fill="#def4f8"/><path d="m260.667969 53.933594c8.269531 7.527344 13.464843 18.375 13.464843 30.410156 0 4.878906-3.972656 8.847656-8.851562 8.847656h-82.855469c-.011719.386719-.03125.765625-.03125 1.152344 0 4.878906 3.972657 8.847656 8.851563 8.847656h94.039062c4.878906 0 8.847656-3.96875 8.847656-8.847656 0-20.058594-14.4375-36.804688-33.464843-40.410156zm0 0" fill="#bce8f1"/><path d="m107.59375 427.105469c0 9.746093-7.898438 17.644531-17.640625 17.644531-9.746094 0-17.644531-7.898438-17.644531-17.644531 0-9.742188 7.898437-17.640625 17.644531-17.640625 9.742187 0 17.640625 7.898437 17.640625 17.640625zm0 0" fill="#eb5793"/><path d="m392.960938 438.363281h-18.632813c-6.214844 0-11.253906-5.039062-11.253906-11.257812 0-6.214844 5.039062-11.253907 11.253906-11.253907h18.632813c6.214843 0 11.257812 5.039063 11.257812 11.253907-.003906 6.21875-5.042969 11.257812-11.257812 11.257812zm0 0" fill="#def4f8"/><path d="m368.371094 436.644531c1.730468 1.082031 3.765625 1.71875 5.957031 1.71875h18.632813c6.214843 0 11.257812-5.039062 11.257812-11.253906 0-4.316406-2.433594-8.058594-5.996094-9.949219-8.625 8.179688-18.71875 14.820313-29.851562 19.484375zm0 0" fill="#bce8f1"/><g fill="#def4f8"><path d="m322.039062 438.363281h-18.632812c-6.214844 0-11.253906-5.039062-11.253906-11.257812 0-6.214844 5.039062-11.253907 11.253906-11.253907h18.632812c6.214844 0 11.253907 5.039063 11.253907 11.253907 0 6.21875-5.039063 11.257812-11.253907 11.257812zm0 0"/><path d="m251.117188 438.363281h-18.632813c-6.214844 0-11.257813-5.039062-11.257813-11.257812 0-6.214844 5.039063-11.253907 11.257813-11.253907h18.632813c6.214843 0 11.253906 5.039063 11.253906 11.253907 0 6.21875-5.039063 11.257812-11.253906 11.257812zm0 0"/><path d="m450.230469 512h-423.9375c-5.96875 0-10.808594-4.839844-10.808594-10.8125v-18.597656c0-5.972656 4.839844-10.8125 10.808594-10.8125h423.9375c5.972656 0 10.8125 4.839844 10.8125 10.8125v18.597656c0 5.972656-4.839844 10.8125-10.8125 10.8125zm0 0"/></g><path d="m450.230469 471.78125h-29.1875c0 11.167969-9.050781 20.21875-20.21875 20.21875h-385.339844v9.191406c0 5.96875 4.839844 10.808594 10.808594 10.808594h423.9375c5.972656 0 10.8125-4.839844 10.8125-10.808594v-18.601562c0-5.96875-4.839844-10.808594-10.8125-10.808594zm0 0" fill="#bce8f1"/><path d="m72.308594 194.015625h331.910156v48.980469h-331.910156zm0 0" fill="#ffe565"/><path d="m364.214844 194.015625h40v48.980469h-40zm0 0" fill="#ffd508"/><path d="m72.308594 291.976562h331.910156v48.980469h-331.910156zm0 0" fill="#ffe565"/><path d="m336.898438 340.957031h67.316406v-48.980469h-41.710938c-3.601562 18.863282-12.714844 35.769532-25.605468 48.980469zm0 0" fill="#ffd508"/><path d="m49.292969 163.808594h-18.777344c-4.140625 0-7.5-3.359375-7.5-7.5 0-4.144532 3.359375-7.5 7.5-7.5h18.777344c4.144531 0 7.5 3.355468 7.5 7.5 0 4.140625-3.355469 7.5-7.5 7.5zm7.5 24.265625c0-4.144531-3.355469-7.5-7.5-7.5h-18.777344c-4.140625 0-7.5 3.355469-7.5 7.5 0 4.140625 3.359375 7.5 7.5 7.5h18.777344c4.144531 0 7.5-3.359375 7.5-7.5zm0 31.765625c0-4.144532-3.355469-7.5-7.5-7.5h-18.777344c-4.140625 0-7.5 3.355468-7.5 7.5 0 4.140625 3.359375 7.5 7.5 7.5h18.777344c4.144531 0 7.5-3.359375 7.5-7.5zm0 31.761718c0-4.140624-3.355469-7.5-7.5-7.5h-18.777344c-4.140625 0-7.5 3.359376-7.5 7.5 0 4.144532 3.359375 7.5 7.5 7.5h18.777344c4.144531 0 7.5-3.355468 7.5-7.5zm0 31.765626c0-4.140626-3.355469-7.5-7.5-7.5h-18.777344c-4.140625 0-7.5 3.359374-7.5 7.5 0 4.144531 3.359375 7.5 7.5 7.5h18.777344c4.144531 0 7.5-3.355469 7.5-7.5zm0 31.765624c0-4.140624-3.355469-7.5-7.5-7.5h-18.777344c-4.140625 0-7.5 3.359376-7.5 7.5 0 4.144532 3.359375 7.5 7.5 7.5h18.777344c4.144531 0 7.5-3.355468 7.5-7.5zm0 31.765626c0-4.140626-3.355469-7.5-7.5-7.5h-18.777344c-4.140625 0-7.5 3.359374-7.5 7.5 0 4.144531 3.359375 7.5 7.5 7.5h18.777344c4.144531 0 7.5-3.355469 7.5-7.5zm0 31.765624c0-4.140624-3.355469-7.5-7.5-7.5h-18.777344c-4.140625 0-7.5 3.359376-7.5 7.5 0 4.144532 3.359375 7.5 7.5 7.5h18.777344c4.144531 0 7.5-3.355468 7.5-7.5zm396.71875-222.355468c0-4.144532-3.359375-7.5-7.5-7.5h-18.777344c-4.144531 0-7.5 3.355468-7.5 7.5 0 4.140625 3.355469 7.5 7.5 7.5h18.777344c4.140625 0 7.5-3.359375 7.5-7.5zm0 31.765625c0-4.144531-3.359375-7.5-7.5-7.5h-18.777344c-4.144531 0-7.5 3.355469-7.5 7.5 0 4.140625 3.355469 7.5 7.5 7.5h18.777344c4.140625 0 7.5-3.359375 7.5-7.5zm0 31.765625c0-4.144532-3.359375-7.5-7.5-7.5h-18.777344c-4.144531 0-7.5 3.355468-7.5 7.5 0 4.140625 3.355469 7.5 7.5 7.5h18.777344c4.140625 0 7.5-3.359375 7.5-7.5zm0 31.761718c0-4.140624-3.359375-7.5-7.5-7.5h-18.777344c-4.144531 0-7.5 3.359376-7.5 7.5 0 4.144532 3.355469 7.5 7.5 7.5h18.777344c4.140625 0 7.5-3.355468 7.5-7.5zm0 31.765626c0-4.140626-3.359375-7.5-7.5-7.5h-18.777344c-4.144531 0-7.5 3.359374-7.5 7.5 0 4.144531 3.355469 7.5 7.5 7.5h18.777344c4.140625 0 7.5-3.355469 7.5-7.5zm0 31.765624c0-4.140624-3.359375-7.5-7.5-7.5h-18.777344c-4.144531 0-7.5 3.359376-7.5 7.5 0 4.144532 3.355469 7.5 7.5 7.5h18.777344c4.140625 0 7.5-3.355468 7.5-7.5zm0 31.765626c0-4.140626-3.359375-7.5-7.5-7.5h-18.777344c-4.144531 0-7.5 3.359374-7.5 7.5 0 4.144531 3.355469 7.5 7.5 7.5h18.777344c4.140625 0 7.5-3.355469 7.5-7.5zm0 31.765624c0-4.140624-3.359375-7.5-7.5-7.5h-18.777344c-4.144531 0-7.5 3.359376-7.5 7.5 0 4.144532 3.355469 7.5 7.5 7.5h18.777344c4.140625 0 7.5-3.355468 7.5-7.5zm0 0" fill="#4172cc"/><path d="m453.511719 156.308594c0 4.140625-3.359375 7.5-7.5 7.5h-16.984375v-15h16.984375c4.140625 0 7.5 3.355468 7.5 7.5zm-7.5 151.324218h-16.984375v15h16.984375c4.140625 0 7.5-3.355468 7.5-7.5 0-4.140624-3.359375-7.5-7.5-7.5zm7.5 71.03125c0-4.140624-3.359375-7.5-7.5-7.5h-18.777344c-.5625 0-1.109375.066407-1.636719.183594-1.121094 4.148438-2.503906 8.191406-4.136718 12.105469 1.378906 1.65625 3.453124 2.710937 5.773437 2.710937h18.777344c4.140625 0 7.5-3.355468 7.5-7.5zm-7.5-102.796874h-16.984375v15h16.984375c4.140625 0 7.5-3.355469 7.5-7.5 0-4.140626-3.359375-7.5-7.5-7.5zm7.5 71.03125c0-4.140626-3.359375-7.5-7.5-7.5h-16.984375v6.085937c0 3.003906-.140625 5.976563-.40625 8.914063h17.390625c4.140625 0 7.5-3.355469 7.5-7.5zm-7.5-102.796876h-16.984375v15h16.984375c4.140625 0 7.5-3.355468 7.5-7.5 0-4.140624-3.359375-7.5-7.5-7.5zm0-63.527343h-16.984375v15h16.984375c4.140625 0 7.5-3.359375 7.5-7.5 0-4.144531-3.359375-7.5-7.5-7.5zm0 31.765625h-16.984375v15h16.984375c4.140625 0 7.5-3.359375 7.5-7.5 0-4.144532-3.359375-7.5-7.5-7.5zm0 0" fill="#3567c3"/></svg>